<svg id="Capa_1" enable-background="new 0 0 512 512" height="512" viewBox="0 0 512 512" width="512" xmlns="http://www.w3.org/2000/svg"><g><g><path d="m169.382 163.4h173.236v22.261h-173.236z" fill="#015382"/><g><g fill="#003f5e"><path d="m470.87 238.821c0 7.544 6.116 13.66 13.66 13.66h13.81c7.544 0 13.66-6.116 13.66-13.66 0-7.544-6.116-13.66-13.66-13.66h-13.81c-7.544 0-13.66 6.116-13.66 13.66z"/><path d="m0 238.821c0 7.544 6.116 13.66 13.66 13.66h13.81c7.544 0 13.66-6.116 13.66-13.66 0-7.544-6.116-13.66-13.66-13.66h-13.81c-7.544 0-13.66 6.116-13.66 13.66z"/></g><g><path d="m276.941 235.619c-6.352-3.657-13.594-5.591-20.941-5.591-7.348 0-14.589 1.933-20.941 5.591l-11.909-20.682c9.969-5.741 21.329-8.775 32.85-8.775 11.522 0 22.881 3.034 32.85 8.775z" fill="#003f5e"/></g><g><g><path d="m19.654 239.744v20.427c0 48.838 39.591 88.429 88.429 88.429h5.717c22.175 0 43.862-6.543 62.258-18.926 28.691-19.312 65.449-52.776 65.449-97.47v-8.538c0-33.284-26.982-60.267-60.267-60.267h-85.241c-42.164.001-76.345 34.181-76.345 76.345z" fill="#015382"/><path d="m108.083 326.34c-36.486 0-66.168-29.683-66.168-66.169v-20.427c0-29.822 24.262-54.084 54.084-54.084h85.242c20.957 0 38.005 17.049 38.005 38.006v8.539c0 34.356-30.245 61.925-55.618 79.003-14.708 9.9-31.938 15.132-49.828 15.132z" fill="#ff993a"/><path d="m219.25 223.67v8.53c0 34.36-30.25 61.93-55.62 79.01-14.71 9.9-31.94 15.13-49.83 15.13h-5.72c-34.12 0-62.29-25.96-65.79-59.17 16.21 14.34 37.52 23.05 60.88 23.05 50.77 0 91.93-41.15 91.93-91.92 0-3.46-.19-6.88-.57-10.24 14.43 5.4 24.72 19.32 24.72 35.61z" fill="#f97c15"/><path d="m492.346 239.744v20.427c0 48.838-39.591 88.429-88.429 88.429h-5.717c-22.175 0-43.862-6.543-62.258-18.926-28.691-19.312-65.449-52.776-65.449-97.47v-8.538c0-33.284 26.982-60.267 60.267-60.267h85.242c42.163.001 76.344 34.181 76.344 76.345z" fill="#015382"/><path d="m398.2 326.34c-17.89 0-35.121-5.232-49.828-15.132-25.373-17.078-55.618-44.647-55.618-79.003v-8.539c0-20.957 17.049-38.006 38.005-38.006h85.242c29.822 0 54.084 24.262 54.084 54.084v20.427c0 36.486-29.683 66.169-66.168 66.169z" fill="#ff993a"/></g></g></g></g><g><path d="m96 163.4c-42.17 0-76.35 34.18-76.35 76.34v6.52c0 6.15 4.985 11.135 11.135 11.135 6.15 0 11.135-4.985 11.135-11.135v-6.52c0-29.868 24.212-54.08 54.08-54.08h49.346c6.147 0 11.13-4.983 11.13-11.13 0-6.147-4.983-11.13-11.13-11.13z" fill="#02718c"/><path d="m49.017 212.971c6.538-11.448 17.137-20.275 29.838-24.519 4.571-1.527 7.604-5.871 7.485-10.689-.002-.076-.004-.151-.006-.227-.182-7.456-7.53-12.543-14.602-10.174-17.877 5.989-32.799 18.411-42.022 34.516-3.312 5.783-.795 13.169 5.373 15.696.069.028.138.056.206.084 5.107 2.092 10.991.106 13.728-4.687z" fill="#0d8ba0"/><path d="m227.81 254.305c-5.531-2.832-12.308-.507-14.948 5.119-10.216 21.773-30.979 39.497-49.233 51.786-9.643 6.49-20.37 10.967-31.656 13.283-5.134 1.053-8.841 5.532-8.841 10.773v.266c0 6.933 6.348 12.174 13.141 10.788 14.154-2.887 27.68-8.498 39.786-16.649 20.174-13.578 44.311-34.163 56.869-60.726 2.546-5.386.384-11.82-4.918-14.536-.066-.036-.133-.07-.2-.104z" fill="#02718c"/><path d="m203.524 274.815c-6.447 8.676-14.312 16.5-22.484 23.351-4.054 3.398-5.038 9.24-2.403 13.827l.138.24c3.422 5.957 11.387 7.312 16.641 2.885 9.241-7.788 18.32-16.857 25.943-27.117 3.245-4.368 2.753-10.462-1.103-14.301-.054-.054-.108-.108-.162-.162-4.751-4.732-12.571-4.105-16.57 1.277z" fill="#0d8ba0"/></g><path d="m319.687 303.912c.053-.052.107-.103.16-.155 4.371-4.24 4.496-11.253.202-15.571-15.258-15.341-27.298-34.31-27.298-55.986v-8.53c0-20.992 17.018-38.01 38.01-38.01h42.183c6.147 0 11.13-4.983 11.13-11.13 0-6.147-4.983-11.13-11.13-11.13h-42.184c-33.286 0-60.27 26.984-60.27 60.27v8.53c0 28.77 15.23 52.876 33.734 71.556 4.241 4.282 11.137 4.353 15.463.156z" fill="#02718c"/><path d="m288.695 261.575c5.094-2.162 7.818-7.759 6.328-13.088-1.464-5.237-2.273-10.671-2.273-16.287v-8.53c0-12.953 6.479-24.391 16.373-31.254 3.91-2.712 5.759-7.534 4.445-12.107l-.103-.359c-2.076-7.22-10.613-10.234-16.804-5.979-15.806 10.864-26.171 29.07-26.171 49.698v8.53c0 7.833 1.132 15.319 3.151 22.444 1.79 6.318 8.804 9.579 14.85 7.018.068-.028.136-.057.204-.086z" fill="#0d8ba0"/><path d="m467.381 278.854c-6.894 23.385-26.38 41.416-50.576 46.212-5.245 1.04-9.054 5.589-9.054 10.936 0 6.973 6.346 12.287 13.19 10.952 32.454-6.329 58.565-30.409 67.803-61.726 2.106-7.14-3.241-14.304-10.686-14.304h-.017c-4.915.001-9.271 3.216-10.66 7.93z" fill="#02718c"/><path d="m453.745 303.617c-4.383 5.025-9.51 9.385-15.209 12.902-4.683 2.89-6.56 8.753-4.375 13.804.029.068.059.136.088.204 2.646 6.113 10.113 8.568 15.793 5.089 7.683-4.706 14.591-10.551 20.491-17.301 4.041-4.623 3.545-11.654-1.114-15.653-.059-.051-.118-.101-.176-.151-4.599-3.949-11.515-3.461-15.498 1.106z" fill="#0d8ba0"/><path d="m470.08 239.74v20.43c0 36.49-29.68 66.17-66.16 66.17h-5.72c-17.89 0-35.12-5.23-49.83-15.13-15.19-10.22-32.12-24.21-43.27-41.16 14.92 17.49 37.12 28.58 61.91 28.58 44.93 0 81.35-36.42 81.35-81.35 0-8.05-1.17-15.82-3.35-23.16 15.06 9.61 25.07 26.47 25.07 45.62z" fill="#f97c15"/><path d="m65.125 230.818c4.68 0 9.036-2.227 11.923-5.91 4.41-5.626 11.263-9.248 18.951-9.248h53.207c8.284 0 15-6.716 15-15 0-8.284-6.716-15-15-15h-53.206c-17.461 0-33.01 8.32-42.901 21.203-7.511 9.783-.308 23.955 12.026 23.955z" fill="#ffaf40"/><path d="m125.046 185.66h-15.906c-8.284 0-15 6.716-15 15 0 8.284 6.716 15 15 15h15.906c8.284 0 15-6.716 15-15 0-8.284-6.715-15-15-15z" fill="#ffc751"/><path d="m330.76 185.66c-20.992 0-38.01 17.018-38.01 38.01v8.53c0 5.498.776 10.822 2.184 15.956 2.595 9.467 13.599 13.762 22.007 8.698l.258-.155c5.724-3.448 8.398-10.282 6.644-16.73-.723-2.66-1.093-5.256-1.093-7.769v-8.53c0-4.424 3.586-8.01 8.01-8.01h61.99c8.284 0 15-6.716 15-15 0-8.284-6.716-15-15-15z" fill="#ffaf40"/><path d="m377.287 185.66h-39.121c-8.284 0-15 6.716-15 15 0 8.284 6.716 15 15 15h39.121c8.284 0 15-6.716 15-15 0-8.284-6.715-15-15-15z" fill="#ffc751"/></g></svg>