<?xml version="1.0" encoding="utf-8"?>
<!-- Generator: Adobe Illustrator 22.1.0, SVG Export Plug-In . SVG Version: 6.00 Build 0)  -->
<svg version="1.1" id="Layer_1" xmlns="http://www.w3.org/2000/svg" xmlns:xlink="http://www.w3.org/1999/xlink" x="0px" y="0px"
	 viewBox="0 0 512 512" style="enable-background:new 0 0 512 512;" xml:space="preserve">
<style type="text/css">
@media (prefers-color-scheme: light) {
	.st0{fill:url(#gradient0);}
	.st1{fill:url(#gradient1);}
	.st2{fill:#5E5E5E;}
	}
@media (prefers-color-scheme: dark) {
	.st0{fill:url(#gradient0);}
	.st1{fill:url(#gradient1);}
	.st2{fill:#FFFFFF;}
}
</style>
<title>button</title>
<g>
	<g>
		<linearGradient id="gradient0" gradientUnits="userSpaceOnUse" x1="184.14" y1="445.3583" x2="184.14" y2="496.834">
			<stop  offset="0" style="stop-color:#43B2D1"/>
			<stop  offset="1" style="stop-color:#1A62AA"/>
		</linearGradient>
		<path class="st0" d="M294,447c-21-2-40,8-60,15c-8,3-19,4-26-2c-14-9-30-17-46-14c-27,5-53,13-80,7c-20.7-4.7-40.5-5.9-60.2,1.5
			v42.3h192c56-0.7,100.2-15.4,132.7-44.2C329.5,456.1,311.4,449.5,294,447z"/>
		<linearGradient id="gradient1" gradientUnits="userSpaceOnUse" x1="219.9856" y1="18.543" x2="219.9856" y2="464.3855">
			<stop  offset="0" style="stop-color:#FCEE21"/>
			<stop  offset="1" style="stop-color:#F15A24"/>
		</linearGradient>
		<path class="st1" d="M370,426.5c32.1-45.1,48.2-101.4,48.2-168.8c0-67.8-16.1-124.3-48.2-169.5c-33.2-45.6-85.3-68.8-156.2-69.7
			h-192v436c19.7-7.4,39.6-6.2,60.2-1.5c27,6,53-2,80-7c16-3,32,5,46,14c7,6,18,5,26,2c20-7,39-17,60-15c17.4,2.5,35.5,9.1,52.5,5.6
			C355.2,444.9,363,436.2,370,426.5z M337.1,257.7c0,11.1-0.2,22.5-0.6,34.1c-0.8,11.4-2.6,22.2-5.4,32.5
			c-4.2,21-11.9,39.3-23.1,55.1c-21.4,32.6-63.1,49.1-125.2,49.5h-79.9V86.6h79.9c31.5,0,57.6,4.3,78.3,12.8
			c20.5,8.5,36.1,20.5,46.9,36.1C328.3,167.3,338,208.1,337.1,257.7z"/>
	</g>
	<path class="st2" d="M108.2,284.7c1.3-3.7,4.2-5.5,7.5-7.2c10.1-5.4,20.2-11,30.2-16.6c4.3-2.4,8.2-2.6,12.7-0.2c12.5,6.7,25.2,12.9,37.7,19.5
		c5,2.6,9.2,2.3,13.7-1.2c16.7-13.1,33.5-26,50.3-39c1.9-1.4,2.9-3.1,3.7-5.2c13.4-31.9,31.7-60.6,55-86.2
		c6.8-7.5,15-11.7,25.2-12.3c9.7-0.6,19.4-1.9,29.1-2.1c8-0.1,14.6-3.4,21.3-6.8c9.9-5,19.8-9.9,29.6-15.1
		c8.1-4.4,14.6-11,22.1-16.2c2.3-1.6,0.2-2.8-0.6-3.8c-8.6-11.2-17.3-22.3-25.9-33.4c-3.7-4.8-4.1-9.9-0.9-14
		c0.9-1.2,2.4-2.8,3.3-3.3c0.9-0.5,1.9-1.3,4.2-1.3c5.1,0.2,8.7,2.8,11.7,6.9c7.6,10.3,15.7,20.2,23.4,30.4c2.4,3.2,3.9,4.3,7.6,1.2
		c5.4-4.6,12.6-3,16.1,2.9c2.9,4.8,1.3,10.2-3.8,14.6c-1.2,1-4.2,1.4-1.8,4.5c8.7,11,17.3,22.1,25.9,33.2c0.9,1.1,2.9,3.9,2.9,6.5
		c0.1,5.6-2.2,9.6-7.7,11.4c-5,1.6-8.8,0-13-5.5c-8.2-10.6-16.4-21.1-24.6-31.7c-0.7-0.9-1.1-2.7-2.8-2c-1.3,0.6-2.3,1.5-2.5,3.3
		c-0.4,2.8-0.5,5.5,0.2,8.2c2.2,9.1,4.1,18.2,6.7,27.2c3,10.3,2.6,19.8-3.6,28.8c-2,2.9-3.4,6.1-5.1,9.2c-5.4,10.4-13,18.9-22.3,26
		c-21.4,16.3-42.7,32.7-64,49.1c-12.2,9.4-24.1,19.1-38.1,26.1c-29.1,14.5-58.1,29.2-86.9,44.1c-25.1,13-49.1,12.4-72.5-4
		c-10.8-7.5-21.6-14.9-32.5-22.2c-10.2-6.8-19.9-14.1-30.4-20.3C108.2,287,107.9,285.8,108.2,284.7z M371,160.3
		c-8.3,0.7-16.2,1.1-24.1,2.1c-4.5,0.5-9,2.1-12.1,5.6c-11.9,13.5-23,27.5-31.9,43.1c-1.2,2.1-0.5,2.8,1.5,3.2
		c5.2,1,9.7-0.5,13.9-3.7c14.6-11.3,28.9-22.9,43.8-33.7C368,172.5,369.7,167,371,160.3z"/>
	<path class="st2" d="M485.8,265.7c-15,4.7-31-3.9-35.8-19c-4.8-15.2,3.8-31.6,18.9-36.2c15-4.6,31.3,3.9,36,18.8
		C510,244.6,501.4,260.9,485.8,265.7z"/>
</g>
</svg>
